# AST/ASF file generated using VICON BodyLanguage
# -----------------------------------------------
:version 1.10
:name VICON
:units
  mass 1.0
  length 0.45
  angle deg
:documentation
   .ast/.asf automatically generated from VICON data using
   VICON BodyBuilder and BodyLanguage model FoxedUp or BRILLIANT.MOD
:root
   order TX TY TZ RX RY RZ
   axis XYZ
   position 0 0 0  
   orientation 0 0 0 
:bonedata
  begin
     id 1 
     name lhipjoint
     direction 0.558404 -0.748506 0.357664 
     length 2.4234 
     axis 0 0 0  XYZ
  end
  begin
     id 2 
     name lfemur
     direction 0.34202 -0.939693 0  
     length 7.14567  
     axis 0 0 20  XYZ
    dof rx ry rz
    limits (-160.0 20.0)
           (-70.0 70.0)
           (-60.0 70.0)
  end
  begin
     id 3 
     name ltibia
     direction 0.34202 -0.939693 0   
     length 8.13956   
     axis 0 0 20   XYZ
    dof rx
    limits (-10.0 170.0)
  end
  begin
     id 4 
     name lfoot
     direction 0.0791314 -0.217412 0.972867   
     length 2.00134   
     axis -90 7.62852e-016 20   XYZ
    dof rx rz
    limits (-45.0 90.0)
           (-70.0 20.0)
  end
  begin
     id 5 
     name ltoes
     direction 1.53547e-011 -4.21922e-011 1   
     length 1.00735   
     axis -90 7.62852e-016 20   XYZ
    dof rx
    limits (-90.0 20.0)
  end
  begin
     id 6 
     name rhipjoint
     direction -0.496392 -0.78327 0.374276   
     length 2.31584  
     axis 0 0 0  XYZ 
  end
  begin
     id 7 
     name rfemur
     direction -0.34202 -0.939693 0   
     length 7.47417   
     axis 0 0 -20   XYZ
    dof rx ry rz
    limits (-160.0 20.0)
           (-70.0 70.0)
           (-70.0 60.0)
  end
  begin
     id 8 
     name rtibia
     direction -0.34202 -0.939693 0   
     length 7.69071   
     axis 0 0 -20   XYZ
    dof rx
    limits (-10.0 170.0)
 end
 begin
     id 9 
     name rfoot
     direction -0.103069 -0.28318 0.953512   
     length 2.16135  
     axis -90 -7.62852e-016 -20   XYZ
    dof rx rz
    limits (-45.0 90.0)
           (-20.0 70.0)
  end
  begin
     id 10 
     name rtoes
     direction -1.53581e-011 -4.21904e-011 1   
     length 1.07867   
     axis -90 -7.62852e-016 -20   XYZ
    dof rx
    limits (-90.0 20.0)
  end
  begin
     id 11 
     name lowerback
     direction -0.0258961 0.994776 -0.0987407   
     length 2.19412   
     axis 0 0 0   XYZ
    dof rx ry rz
    limits (-20.0 45.0)
           (-30.0 30.0)
           (-30.0 30.0)
  end
  begin
     id 12 
     name upperback
     direction 0.0402454 0.999185 0.00320666   
     length 2.18445   
     axis 0 0 0   XYZ
    dof rx ry rz
    limits (-20.0 45.0)
           (-30.0 30.0)
           (-30.0 30.0)
  end
  begin
     id 13 
     name thorax
     direction 0.0519376 0.997415 0.0496558   
     length 2.21487   
     axis 0 0 0   XYZ
    dof rx ry rz
    limits (-20.0 45.0)
           (-30.0 30.0)
           (-30.0 30.0)
  end
  begin
     id 14 
     name lowerneck
     direction -0.0921276 0.983211 0.157506   
     length 1.61201   
     axis 0 0 0   XYZ
    dof rx ry rz
    limits (-20.0 45.0)
           (-30.0 30.0)
           (-30.0 30.0)
  end
  begin
     id 15 
     name upperneck
     direction 0.0820814 0.98162 -0.172292   
     length 1.65275   
     axis 0 0 0   XYZ
    dof rx ry rz
    limits (-20.0 45.0)
           (-30.0 30.0)
           (-30.0 30.0)
  end
  begin
     id 16
     name head
     direction 0.0336554 0.996413 -0.0776455  
     length 1.66415  
     axis 0 0 0   XYZ
    dof rx ry rz
    limits (-20.0 45.0)
           (-30.0 30.0)
           (-30.0 30.0)
  end
  begin
     id 17 
     name lclavicle
     direction 0.94696 0.284418 -0.149576  
     length 3.41447  
     axis 0 0 0   XYZ
    dof ry rz
    limits (-20.0 10.0)
           (0.0 20.0)
  end
  begin
     id 18 
     name lhumerus
     direction 1 -0.000130264 -9.81312e-005   
     length 5.19964   
     axis 180 -30 -90   XYZ
    dof rx ry rz
    limits (-60.0 90.0)
           (-90.0 90.0)
           (-90.0 90.0)
  end
  begin
     id 19
     name lradius
     direction 1 -4.48961e-011 1.43854e-026   
     length 3.32189   
     axis 180 -30 -90   XYZ
    dof rx
    limits (-10.0 170.0)
  end
  begin
     id 20
     name lwrist
     direction 1 -4.48958e-011 3.1502e-026   
     length 1.66095   
     axis -1.97692e-014 90 90   XYZ
    dof ry
    limits (-180.0 0.0)
 end
  begin
     id 21 
     name lhand
     direction 1 -4.48927e-011 6.3004e-026   
     length 0.645616   
     axis -4.02019e-014 90 90   XYZ
    dof rx rz
    limits (-90.0 90.0)
           (-45.0 45.0)
  end
  begin
     id 22 
     name lfingers
     direction 1 -4.4904e-011 1.26008e-025   
     length 0.520512   
     axis -8.04039e-014 90 90   XYZ
    dof rx
    limits (0.0 90.0)
  end
  begin
     id 23
     name lthumb
     direction 0.707107 -6.34947e-011 0.707107   
     length 0.747354   
     axis -90 45 2.85299e-015   XYZ
    dof rx rz
    limits (-45.0 45.0)
           (-45.0 45.0)
  end
  begin
     id 24 
     name rclavicle
     direction -0.909391 0.383475 -0.161107   
     length 3.25176  
     axis 0 0 0   XYZ 
    dof ry rz
    limits (-10.0 20.0)
           (-20.0 0.0)
  end
  begin
     id 25 
     name rhumerus
     direction -1 -4.48965e-011 -1.81384e-027  
     length 5.6595   
     axis 180 30 90   XYZ
    dof rx ry rz
    limits (-90.0 60.0)
           (-90.0 90.0)
           (-90.0 90.0)
  end
  begin
     id 26 
     name rradius
     direction -1 -4.48996e-011 -8.09397e-027   
     length 3.37604   
     axis 180 30 90   XYZ
    dof rx
    limits (-10.0 170.0)
  end
  begin
     id 27 
     name rwrist
     direction -1 -4.48927e-011 -1.56669e-026   
     length 1.68802   
     axis 1.21142e-014 -90 -90   XYZ
    dof ry
    limits (-180.0 0.0)
  end
  begin
     id 28
     name rhand
     direction -1 -4.48912e-011 -3.13339e-026   
     length 0.824702   
     axis 1.99937e-014 -90 -90   XYZ
    dof rx rz
    limits (-90.0 90.0)
           (-45.0 45.0)
  end
  begin
     id 29
     name rfingers
     direction -1 -4.49011e-011 -6.26677e-026   
     length 0.664896   
     axis 3.99874e-014 -90 -90   XYZ
    dof rx
    limits (0.0 90.0)
  end
  begin
     id 30
     name rthumb
     direction -0.707107 -6.34931e-011 0.707107   
     length 0.954662   
     axis -90 -45 -2.85299e-015   XYZ
    dof rx rz
    limits (-45.0 45.0)
           (-45.0 45.0)
  end
:hierarchy
  begin
    root lhipjoint rhipjoint lowerback
    lhipjoint lfemur
    lfemur ltibia
    ltibia lfoot
    lfoot ltoes
    rhipjoint rfemur
    rfemur rtibia
    rtibia rfoot
    rfoot rtoes
    lowerback upperback
    upperback thorax
    thorax lowerneck lclavicle rclavicle
    lowerneck upperneck
    upperneck head
    lclavicle lhumerus
    lhumerus lradius
    lradius lwrist
    lwrist lhand lthumb
    lhand lfingers
    rclavicle rhumerus
    rhumerus rradius
    rradius rwrist
    rwrist rhand rthumb
    rhand rfingers
  end

#!OML:ASF F:\VICON\USERDATA\INSTALL\rory3\rory3.ASF
:FULLY-SPECIFIED
:DEGREES
111
root 10.5396 17.7707 -18.3172 7.12313 -40.8386 -5.64834
lowerback 4.32095 -0.210225 -2.40134
upperback -1.2649 -0.298493 3.87347
thorax -3.70476 -0.0541799 5.40401
lowerneck -15.7256 -0.915925 -10.1237
upperneck 21.8223 -1.14184 9.95824
head 9.57952 -0.297917 5.06014
rclavicle 6.4779e-014 -1.70955e-014
rhumerus -38.189 -20.0302 -68.3098
rradius 33.8557
rwrist -15.4436
rhand -10.7519 16.8767
rfingers 7.12502
rthumb 15.2594 -12.5404
lclavicle 6.4779e-014 -1.70955e-014
lhumerus -32.0243 21.2916 77.6991
lradius 24.6708
lwrist -11.9194
lhand 0.96671 33.2997
lfingers 7.12502
lthumb 26.516 61.4642
rfemur -17.9257 6.46956 20.5725
rtibia 39.5428
rfoot -19.5843 -9.03949
rtoes 10.3196
lfemur -13.7165 1.00436 -19.2832
ltibia 37.2279
lfoot -23.9694 12.908
ltoes 5.16573
112
root 10.5497 17.7712 -18.3183 7.36521 -40.9976 -5.90183
lowerback 4.02568 -0.255111 -1.7447
upperback -1.06712 -0.33284 3.61077
thorax -3.33148 -0.0991659 4.74739
lowerneck -15.7486 -0.602455 -9.68536
upperneck 21.6785 -0.838467 10.0917
head 9.49533 -0.103227 5.06405
rclavicle -8.40611e-014 -2.50469e-014
rhumerus -37.9036 -20.4488 -68.8621
rradius 33.8661
rwrist -15.0735
rhand -10.7201 17.0035
rfingers 7.12502
rthumb 15.2902 -12.4113
lclavicle -8.40611e-014 -2.50469e-014
lhumerus -31.6926 21.0533 77.3962
lradius 24.8428
lwrist -11.8024
lhand 1.40957 33.7828
lfingers 7.12502
lthumb 26.9398 61.8825
rfemur -18.0605 6.59527 20.729
rtibia 39.5462
rfoot -19.5689 -8.93217
rtoes 10.846
lfemur -13.8545 1.0645 -19.111
ltibia 37.2932
lfoot -24.0443 12.9324
ltoes 9.93838
113
root 10.5595 17.7712 -18.3211 7.6166 -41.2224 -6.1313
lowerback 3.85223 -0.23657 -1.33634
upperback -0.950272 -0.292959 3.5043
thorax -3.11796 -0.0936604 4.39689
lowerneck -15.6273 -0.283057 -9.40711
upperneck 21.3631 -0.475858 10.1898
head 9.31952 0.100791 5.07998
rclavicle 1.40118e-013 -2.50469e-014
rhumerus -37.6507 -20.7579 -69.2035
rradius 33.9143
rwrist -15.1822
rhand -10.8535 17.0319
rfingers 7.12502
rthumb 15.1616 -12.3927
lclavicle 1.40118e-013 -2.50469e-014
lhumerus -31.5572 20.8277 77.3282
lradius 25.2352
lwrist -11.4214
lhand 1.83009 34.2868
lfingers 7.12502
lthumb 27.3421 62.3237
rfemur -18.2279 6.77951 20.8589
rtibia 39.5225
rfoot -19.5331 -8.84621
rtoes 11.6258
lfemur -14.0225 1.11089 -18.9705
ltibia 37.3735
lfoot -24.128 12.9999
ltoes 6.16425
114
root 10.5713 17.7717 -18.3272 7.81295 -41.4063 -6.2836
lowerback 3.84181 -0.204806 -1.18082
upperback -0.898421 -0.243857 3.52595
thorax -3.06308 -0.0736117 4.32724
lowerneck -15.4605 -0.0657662 -9.22995
upperneck 21.0381 -0.193358 10.1238
head 9.14378 0.240464 5.04292
rclavicle 1.85615e-014 2.0276e-014
rhumerus -37.4975 -20.4643 -69.4983
rradius 34.2128
rwrist -15.8333
rhand -11.0619 16.8021
rfingers 7.12502
rthumb 14.9609 -12.6375
lclavicle 1.85615e-014 2.0276e-014
lhumerus -31.481 20.614 77.4956
lradius 25.5219
lwrist -11.1127
lhand 1.6749 34.5349
lfingers 7.12502
lthumb 27.1936 62.5951
rfemur -18.3949 6.93271 20.9267
rtibia 39.5007
rfoot -19.4424 -8.80026
rtoes 11.7876
lfemur -14.1796 1.13499 -18.8976
ltibia 37.419
lfoot -24.1037 13.102
ltoes 8.54995
115
root 10.582 17.7732 -18.3313 7.86439 -41.3992 -6.35318
lowerback 4.12562 -0.204527 -1.3186
upperback -0.990227 -0.241919 3.74293
thorax -3.31774 -0.0633803 4.63747
lowerneck -15.294 0.0903358 -9.23536
upperneck 20.9813 0.0705025 9.89638
head 9.06457 0.336859 4.98772
rclavicle 5.29264e-015 -4.37326e-015
rhumerus -37.6492 -19.6802 -69.395
rradius 34.6322
rwrist -16.518
rhand -11.1241 16.543
rfingers 7.12502
rthumb 14.901 -12.9011
lclavicle 5.29264e-015 -4.37326e-015
lhumerus -31.5565 20.5536 77.8472
lradius 25.565
lwrist -10.9719
lhand 1.27735 34.4672
lfingers 7.12502
lthumb 26.8133 62.5863
rfemur -18.4379 6.92459 20.9649
rtibia 39.4984
rfoot -19.401 -8.81775
rtoes 11.2963
lfemur -14.2263 1.00373 -18.8606
ltibia 37.4156
lfoot -24.0827 13.1285
ltoes 6.84004
116
root 10.5902 17.7761 -18.3288 7.59292 -41.2999 -5.97829
lowerback 4.61605 -0.181136 -2.01451
upperback -1.24923 -0.233412 4.08073
thorax -3.86322 -0.026369 5.4009
lowerneck -15.1573 0.216127 -9.39071
upperneck 21.2411 0.350184 9.51069
head 9.09975 0.408494 4.91639
rclavicle 2.16675e-014 3.97569e-015
rhumerus -38.0494 -19.2317 -68.606
rradius 34.8739
rwrist -16.6662
rhand -10.9438 16.5015
rfingers 7.12502
rthumb 15.0746 -12.9296
lclavicle 2.16675e-014 3.97569e-015
lhumerus -31.8591 20.5633 78.3967
lradius 25.5209
lwrist -10.9132
lhand 1.10585 34.1176
lfingers 7.12502
lthumb 26.6492 62.2619
rfemur -18.4279 6.67874 20.6317
rtibia 39.5119
rfoot -19.4286 -8.71309
rtoes 11.3183
lfemur -14.1834 0.813946 -19.1973
ltibia 37.3693
lfoot -24.1134 13.1786
ltoes 10.2967
117
root 10.601 17.7785 -18.3236 7.40667 -41.288 -5.65755
lowerback 4.82289 -0.17173 -2.36784
upperback -1.33235 -0.23702 4.21462
thorax -4.06617 -0.0118871 5.75043
lowerneck -15.1177 0.323131 -9.4788
upperneck 21.3872 0.551411 9.34033
head 9.12179 0.474654 4.89846
rclavicle 4.08502e-014 7.95139e-016
rhumerus -38.0973 -19.1532 -68.2305
rradius 34.9642
rwrist -16.7544
rhand -10.8295 16.5743
rfingers 7.12502
rthumb 15.1847 -12.8485
lclavicle 4.08502e-014 7.95139e-016
lhumerus -31.9353 20.5683 78.7376
lradius 25.5929
lwrist -10.7557
lhand 1.21925 33.9736
lfingers 7.12502
lthumb 26.7577 62.1013
rfemur -18.4775 6.53821 20.3148
rtibia 39.5223
rfoot -19.42 -8.62881
rtoes 11.3005
lfemur -14.1726 0.843727 -19.5121
ltibia 37.3096
lfoot -24.0939 13.2106
ltoes 6.7784
118
root 10.6119 17.7794 -18.3229 7.51875 -41.298 -5.72186
lowerback 4.81468 -0.190213 -2.22134
upperback -1.31189 -0.252735 4.23163
thorax -4.03853 -0.0244666 5.68515
lowerneck -14.8543 0.441931 -9.49954
upperneck 21.2551 0.693356 9.39086
head 9.0106 0.541664 4.92521
rclavicle -7.30782e-014 -4.77083e-014
rhumerus -38.0139 -19.1009 -68.2901
rradius 35.036
rwrist -16.8525
rhand -10.8913 16.7028
rfingers 7.12502
rthumb 15.1252 -12.7245
lclavicle -7.30782e-014 -4.77083e-014
lhumerus -31.8908 20.4737 78.8655
lradius 25.7229
lwrist -10.4711
lhand 1.21162 33.9967
lfingers 7.12502
lthumb 26.7504 62.1255
rfemur -18.5856 6.47486 20.3251
rtibia 39.5252
rfoot -19.3453 -8.59469
rtoes 10.7759
lfemur -14.2518 0.98943 -19.4749
ltibia 37.2632
lfoot -24.0245 13.0687
ltoes 6.9244
